#!OML:ASF F:\VICON\USERDATA\INSTALL\rory3\rory3.ASF
:FULLY-SPECIFIED
:DEGREES
169
root 4.17556 17.5897 2.88636 19.9264 -4.34661 -7.38151
lowerback -2.86039 -0.764775 6.19874
upperback -7.74397 -0.786014 3.88827
thorax -6.53073 -0.640242 0.632965
lowerneck -13.9475 2.24259 -0.682989
upperneck 38.4191 3.16946 0.883979
head 15.9514 1.30989 1.04052
rclavicle 2.2736e-014 -6.75868e-015
rhumerus 21.2119 -17.5084 -2.50646
rradius 109.417
rwrist -51.4179
rhand -5.27424 -45.0615
rfingers 7.12502
rthumb 20.5299 -73.996
lclavicle 2.2736e-014 -6.75868e-015
lhumerus 43.0097 25.3029 -4.98148
lradius 33.2334
lwrist 37.513
lhand -21.6496 -17.1886
lfingers 7.12502
lthumb 4.74713 12.7382
rfemur -13.8035 6.58506 3.19255
rtibia 20.291
rfoot 19.2522 -9.43103
rtoes -32.8057
lfemur -31.6696 -2.90488 -18.1152
ltibia 28.4737
lfoot -14.6762 5.91503
ltoes 10.7376
170
root 4.17828 17.5833 2.87013 19.889 -4.59073 -7.05756
lowerback -2.89297 -0.713034 5.75283
upperback -7.54502 -0.741618 3.77968
thorax -6.2831 -0.588407 0.757025
lowerneck -14.1896 2.11375 -0.694769
upperneck 38.5389 3.02105 0.781349
head 16.0772 1.228 0.979242
rclavicle 1.08338e-014 -4.01545e-014
rhumerus 21.4216 -17.3783 -2.70559
rradius 109.217
rwrist -51.013
rhand -5.16805 -45.2184
rfingers 7.12502
rthumb 20.6319 -74.1418
lclavicle 1.08338e-014 -4.01545e-014
lhumerus 43.5496 25.714 -4.09948
lradius 33.1527
lwrist 37.1397
lhand -22.0094 -17.491
lfingers 7.12502
lthumb 4.39964 12.4433
rfemur -14.2393 6.58166 2.80423
rtibia 20.8451
rfoot 19.6366 -8.31668
rtoes -34.6676
lfemur -31.6948 -2.82452 -18.5398
ltibia 28.521
lfoot -14.6574 6.01172
ltoes 10.1948
171
root 4.18883 17.5769 2.86321 19.7546 -4.62797 -7.04847
lowerback -2.76941 -0.680928 5.80071
upperback -7.40534 -0.696978 3.74218
thorax -6.20349 -0.566785 0.688227
lowerneck -14.2669 1.93754 -0.856634
upperneck 38.6799 2.80143 0.790968
head 16.1688 1.11077 0.9777
rclavicle -1.12438e-014 7.95139e-015
rhumerus 21.6247 -17.0645 -3.01329
rradius 108.983
rwrist -50.2743
rhand -5.5337 -45.1004
rfingers 7.12502
rthumb 20.2806 -74.0616
lclavicle -1.12438e-014 7.95139e-015
lhumerus 43.8629 25.7951 -3.50105
lradius 33.2288
lwrist 36.9272
lhand -23.2945 -18.1447
lfingers 7.12502
lthumb 3.1587 11.8117
rfemur -14.4067 6.34651 2.83401
rtibia 21.4005
rfoot 19.7272 -8.10221
rtoes -34.7198
lfemur -31.5875 -2.75764 -18.6282
ltibia 28.5638
lfoot -14.6284 6.01155
ltoes 9.32154
172
root 4.19531 17.572 2.84837 19.678 -4.63126 -7.13873
lowerback -2.59538 -0.631346 5.89581
upperback -7.33317 -0.618405 3.73059
thorax -6.22556 -0.532623 0.622349
lowerneck -14.146 1.73789 -0.967148
upperneck 38.7401 2.53623 0.771139
head 16.1724 0.980435 0.941455
rclavicle 2.04003e-014 -7.15625e-015
rhumerus 21.836 -16.702 -3.33554
rradius 108.655
rwrist -49.6575
rhand -5.60579 -44.918
rfingers 7.12502
rthumb 20.2113 -73.8865
lclavicle 2.04003e-014 -7.15625e-015
lhumerus 44.0609 25.667 -3.13382
lradius 33.3154
lwrist 36.7043
lhand -23.2429 -18.1122
lfingers 7.12502
lthumb 3.20851 11.8434
rfemur -14.5654 6.26486 2.98429
rtibia 21.817
rfoot 19.7643 -8.07328
rtoes -34.893
lfemur -31.6513 -2.74254 -18.5369
ltibia 28.6649
lfoot -14.5744 5.97812
ltoes 9.33148
173
root 4.201 17.5682 2.82794 19.6086 -4.78043 -7.13987
lowerback -2.46776 -0.558063 5.82323
upperback -7.26423 -0.514609 3.70925
thorax -6.21935 -0.476309 0.637175
lowerneck -13.7576 1.56743 -1.09072
upperneck 38.6181 2.29884 0.785061
head 16.0145 0.868233 0.920635
rclavicle -1.41634e-014 -2.62396e-014
rhumerus 22.0397 -16.366 -3.60185
rradius 108.43
rwrist -49.4932
rhand -5.21208 -45.0354
rfingers 7.12502
rthumb 20.5896 -73.9634
lclavicle -1.41634e-014 -2.62396e-014
lhumerus 44.2115 25.5072 -2.81228
lradius 33.3811
lwrist 36.6763
lhand -21.5454 -17.5316
lfingers 7.12502
lthumb 4.84774 12.3929
rfemur -14.8536 6.33008 2.97245
rtibia 22.1722
rfoot 19.9657 -7.33409
rtoes -35.8989
lfemur -31.7537 -2.67648 -18.5646
ltibia 28.8239
lfoot -14.557 6.00955
ltoes 9.59415
174
root 4.22102 17.5621 2.80564 19.4741 -4.61682 -7.04045
lowerback -2.20192 -0.618236 5.93898
upperback -7.28339 -0.570498 3.66138
thorax -6.39792 -0.515482 0.53015
lowerneck -13.3621 1.45804 -1.23473
upperneck 38.617 2.14807 0.830923
head 15.9162 0.791228 0.934643
rclavicle 2.00151e-014 -1.66979e-014
rhumerus 22.235 -15.8517 -3.85914
rradius 108.397
rwrist -49.6267
rhand -5.46771 -45.3249
rfingers 7.12502
rthumb 20.344 -74.2793
lclavicle 2.00151e-014 -1.66979e-014
lhumerus 44.4247 25.2735 -2.26692
lradius 33.4018
lwrist 36.5346
lhand -19.8519 -17.4425
lfingers 7.12502
lthumb 6.48283 12.4383
rfemur -14.9137 5.81742 2.89866
rtibia 22.5139
rfoot 19.6324 -7.32551
rtoes -35.2428
lfemur -31.7897 -2.78444 -18.7349
ltibia 29.0066
lfoot -14.5773 5.94559
ltoes 9.45221
175
root 4.23061 17.5532 2.79148 19.4549 -4.63347 -6.93428
lowerback -2.14791 -0.650997 5.84207
upperback -7.2812 -0.612864 3.63187
thorax -6.42585 -0.532399 0.555313
lowerneck -13.0482 1.3543 -1.40864
upperneck 38.6009 2.0139 0.879806
head 15.8302 0.716423 0.95935
rclavicle 1.3331e-014 -4.17448e-014
rhumerus 22.4124 -15.3153 -4.13043
rradius 108.4
rwrist -49.8156
rhand -6.01182 -45.4821
rfingers 7.12502
rthumb 19.821 -74.4915
lclavicle 1.3331e-014 -4.17448e-014
lhumerus 44.4354 24.8645 -2.06175
lradius 33.4768
lwrist 36.5927
lhand -19.5635 -17.5168
lfingers 7.12502
lthumb 6.76117 12.3553
rfemur -15.1023 5.61526 2.76454
rtibia 22.8358
rfoot 19.1611 -8.20003
rtoes -33.4683
lfemur -31.9146 -2.81351 -18.8941
ltibia 29.1757
lfoot -14.6105 5.96912
ltoes 9.4995
176
root 4.23664 17.5477 2.78625 19.5109 -4.68818 -7.10114
lowerback -2.30309 -0.635026 5.94234
upperback -7.19492 -0.607108 3.67775
thorax -6.24556 -0.529587 0.54234
lowerneck -13.446 1.36126 -1.15249
upperneck 38.9943 2.05071 0.63562
head 16.1394 0.727845 0.824408
rclavicle -3.3048e-014 2.26615e-014
rhumerus 22.6109 -14.9552 -4.42964
rradius 108.34
rwrist -49.9329
rhand -5.97586 -45.5971
rfingers 7.12502
rthumb 19.8556 -74.6028
lclavicle -3.3048e-014 2.26615e-014
lhumerus 44.45 24.5775 -1.91835
lradius 33.5117
lwrist 36.522
lhand -20.6482 -17.5785
lfingers 7.12502
lthumb 5.71405 12.3245
rfemur -15.3681 5.60175 2.95231
rtibia 23.1294
rfoot 19.1043 -8.40307
rtoes -33.1913
lfemur -32.0695 -2.78732 -18.7288
ltibia 29.3466
lfoot -14.6754 6.03384
ltoes 9.65572
